<?xml version="1.0" encoding="utf-8"?>
<!-- Generator: Adobe Illustrator 17.1.0, SVG Export Plug-In . SVG Version: 6.00 Build 0)  -->
<!DOCTYPE svg PUBLIC "-//W3C//DTD SVG 1.1//EN" "http://www.w3.org/Graphics/SVG/1.1/DTD/svg11.dtd">
<svg version="1.1" id="Layer_1" xmlns="http://www.w3.org/2000/svg" xmlns:xlink="http://www.w3.org/1999/xlink" x="0px" y="0px"
	 viewBox="0 0 120 120" enable-background="new 0 0 120 120" xml:space="preserve">
<rect x="72.659" y="41.879" fill="#59C3B7" width="46.201" height="43.827"/>
<g>
	<g>
		<path fill="#E25026" d="M78.543,63.774c-5.594,4.555-11.169,9.095-16.78,13.663c0-2.259,0-4.504,0-6.783
			c-5.611,0-11.17,0-16.758,0c0-4.587,0-9.14,0-13.728c5.574,0,11.133,0,16.741,0c0-2.284,0-4.533,0-6.781
			C67.362,54.703,72.954,59.24,78.543,63.774z"/>
	</g>
</g>
<rect x="1.205" y="12.097" fill="#59C3B7" width="53.294" height="98.706"/>
<rect x="7.307" y="80.403" fill="#EFEFEF" width="41.002" height="5.322"/>
<rect x="7.307" y="90.851" fill="#EFEFEF" width="41.002" height="5.322"/>
<g>
	<rect x="99.353" y="59.893" fill="#EFEFEF" width="15.843" height="3.085"/>
	<rect x="99.353" y="65.95" fill="#EFEFEF" width="15.843" height="3.085"/>
</g>
<polyline opacity="0.2" fill="#FFFFFF" enable-background="new    " points="32.681,12.097 54.386,12.097 54.386,34.17 "/>
<polyline opacity="0.2" fill="#FFFFFF" enable-background="new    " points="100.473,41.879 118.86,41.879 118.86,59.568 "/>
<g>
	<g>
		<path fill="#E59489" d="M38.058,57.097l0.012-4.652l0.013-5.019l0.018-6.934c0.003-0.993-0.9-1.801-2.016-1.804
			c-1.116-0.003-2.023,0.8-2.025,1.793l-0.018,6.934l-1.173-0.003c0,0-6.674,0.487-6.692,7.275l-0.006,2.378L38.058,57.097z"/>
		<path fill="#F4A798" d="M35.483,57.09l0.043-16.748l0.01-3.8l0.024-9.312c0.003-0.993-0.801-1.801-1.794-1.803
			c-0.993-0.003-1.801,0.801-1.804,1.794l-0.024,9.312c0,0,0.035,1.161-0.468,1.159c-0.542-0.001-0.519-1.162-0.519-1.162
			l0.005-1.915c0.003-0.993-0.801-1.801-1.794-1.803c-0.993-0.003-1.801,0.801-1.803,1.794l-0.005,1.915c0,0,0.016,1.16-0.496,1.159
			c-0.551-0.001-0.551-0.001-0.551-0.001l0.002-0.609c0.002-0.993-0.801-1.801-1.794-1.803c-0.993-0.002-1.801,0.801-1.803,1.794
			l-0.001,0.609c0,0,0.055,1.161-0.487,1.159c-0.667-0.002-0.558-1.162-0.558-1.162l0,0c0.002-0.691-0.802-1.191-1.795-1.194
			c-0.993-0.003-1.801,0.801-1.803,1.794v0.107l-0.008,3.142l-0.04,15.53L35.483,57.09z"/>
		<line fill="none" x1="37.828" y1="60.523" x2="17.789" y2="60.471"/>
		<path fill="#E5DBB1" d="M15.564,69.808c-0.001,0.513,0.413,0.929,0.926,0.931l22.689,0.058c0.513,0.001,0.929-0.413,0.931-0.926
			l0.03-11.768c0.001-0.513-0.413-0.929-0.926-0.931l-22.689-0.059c-0.513-0.001-0.929,0.413-0.931,0.926L15.564,69.808z"/>
		<circle fill="#EFEADA" cx="36.578" cy="60.377" r="1.25"/>
	</g>
</g>
<g>
	<g>
		<path fill="#E59489" d="M93.959,68.212l0.007-2.653l0.007-2.863l0.01-3.955c0.001-0.567-0.513-1.027-1.15-1.029
			s-1.154,0.456-1.155,1.023l-0.01,3.955l-0.669-0.002c0,0-3.807,0.278-3.817,4.15l-0.004,1.356L93.959,68.212z"/>
		<path fill="#F4A798" d="M92.491,68.209l0.025-9.554l0.006-2.168l0.014-5.312c0.001-0.567-0.457-1.027-1.023-1.029
			c-0.567-0.001-1.027,0.457-1.029,1.023l-0.014,5.312c0,0,0.02,0.662-0.267,0.661c-0.309-0.001-0.296-0.663-0.296-0.663
			l0.003-1.092c0.002-0.567-0.457-1.027-1.023-1.029c-0.567-0.001-1.027,0.457-1.029,1.023l-0.003,1.092
			c0,0,0.009,0.662-0.283,0.661c-0.315-0.001-0.314-0.001-0.314-0.001l0.001-0.348c0.001-0.567-0.457-1.027-1.023-1.029
			c-0.567-0.001-1.027,0.457-1.029,1.023l-0.001,0.348c0,0,0.031,0.662-0.278,0.661c-0.381-0.001-0.318-0.663-0.318-0.663l0,0
			c0.001-0.394-0.458-0.68-1.024-0.681c-0.567-0.001-1.027,0.457-1.029,1.023v0.061l-0.005,1.792l-0.023,8.859L92.491,68.209z"/>
		<line fill="none" x1="93.828" y1="70.167" x2="82.397" y2="70.137"/>
		<path fill="#E5DBB1" d="M81.128,75.463c-0.001,0.292,0.236,0.53,0.528,0.531l12.942,0.033c0.292,0.001,0.53-0.236,0.531-0.528
			l0.017-6.713c0.001-0.292-0.236-0.53-0.528-0.531l-12.942-0.033c-0.293-0.001-0.53,0.236-0.531,0.528L81.128,75.463z"/>
		<circle fill="#EFEADA" cx="93.115" cy="70.084" r="0.713"/>
	</g>
</g>
</svg>
