<?xml version="1.0" encoding="utf-8"?>
<!-- Generator: Adobe Illustrator 17.1.0, SVG Export Plug-In . SVG Version: 6.00 Build 0)  -->
<!DOCTYPE svg PUBLIC "-//W3C//DTD SVG 1.1//EN" "http://www.w3.org/Graphics/SVG/1.1/DTD/svg11.dtd">
<svg version="1.1" id="Layer_1" xmlns="http://www.w3.org/2000/svg" xmlns:xlink="http://www.w3.org/1999/xlink" x="0px" y="0px"
	 viewBox="0 0 120 120" enable-background="new 0 0 120 120" xml:space="preserve">
<g>
	<rect x="15" y="14.207" fill="#54342D" width="90" height="90"/>
	<rect x="60" y="14.207" opacity="0.15" fill="#E83231" width="45" height="90"/>
	<g id="isswzW_2_">
		<g>
			<path fill="#EF3A36" d="M39.538,82.078c0-14.125,0-28.37,0-42.491c0.592-0.07,1.093,0.002,1.594,0
				c6.912-0.023,13.825,0.074,20.737,0c1.417-0.015,2.015,0.359,2.036,1.853c0.023,1.625,0.318,3.246,0.521,5.108
				c-5.492,0-10.786,0-16.249,0c0,3.922,0,7.629,0,11.552c4.838,0,9.676,0,14.817,0c0,2.212,0.096,4.231-0.085,6.226
				c-0.034,0.377-1.158,0.918-1.791,0.935c-3.553,0.093-7.109,0.048-10.664,0.05c-0.71,0-1.42,0-2.395,0c0,5.695,0,11.175,0,16.768
				C45.121,82.078,42.446,82.078,39.538,82.078z"/>
			<path fill="#EF3A36" d="M80.462,76.738c0,0.953-0.001,1.665,0,2.377c0.004,3.181-0.252,3.463-3.46,3.817
				c-4.336,0.478-7.219-1.605-7.533-6.005c-0.345-4.84-0.26-9.713-0.285-14.572c-0.034-6.772-0.007-13.545,0-20.317
				c0.001-0.708,0-1.467,0-2.451c2.556,0,4.913-0.174,7.239,0c0.384,0.029,0.973,1.341,0.977,1.989
				c0.068,9.468,0.052,18.936,0.057,28.404c0.001,1.315,0.025,2.63-0.002,3.945C77.417,75.79,77.978,77.062,80.462,76.738z"/>
		</g>
	</g>
	<rect x="15" y="15.793" fill="none" stroke="#EF3D35" stroke-width="8.5714" stroke-miterlimit="10" width="90" height="90"/>
</g>
</svg>
