<?xml version="1.0" encoding="utf-8"?>
<!-- Generator: Adobe Illustrator 17.1.0, SVG Export Plug-In . SVG Version: 6.00 Build 0)  -->
<!DOCTYPE svg PUBLIC "-//W3C//DTD SVG 1.1//EN" "http://www.w3.org/Graphics/SVG/1.1/DTD/svg11.dtd">
<svg version="1.1" id="Layer_1" xmlns="http://www.w3.org/2000/svg" xmlns:xlink="http://www.w3.org/1999/xlink" x="0px" y="0px"
	 viewBox="0 0 120 120" enable-background="new 0 0 120 120" xml:space="preserve">
<path fill="#E25026" d="M58.945,111.333L22.697,101.27l-8.078-90.604h88.762l-8.087,90.589L58.945,111.333z"/>
<path fill="#EF662A" d="M88.372,95.487l6.911-77.413H59v85.556L88.372,95.487z"/>
<polygon fill="#EBEBEB" points="59.031,80.566 59.031,80.537 58.982,80.55 46.607,77.208 45.816,68.346 39.802,68.346 
	34.661,68.346 36.218,85.793 58.951,92.105 58.951,92.113 60.281,91.741 60.281,80.812 "/>
<polygon fill="#EBEBEB" points="60.25,40.298 60.25,29.187 59,29.187 58.962,29.187 31.136,29.187 31.401,32.168 34.133,62.791 
	59,62.791 60.25,62.791 60.25,51.678 59,51.678 44.296,51.678 43.28,40.298 59,40.298 "/>
<path fill="#FFFFFF" d="M84.792,51.678h-2.994H58.962V62.79h13.683l-1.29,14.411l-12.393,3.346v11.56l22.78-6.314l0.167-1.877
	l2.612-29.255L84.792,51.678z"/>
<path fill="#FFFFFF" d="M86.798,29.187H58.962v6.901v4.184v0.026h26.805l0,0h0.036l0.222-2.497l0.507-5.634L86.798,29.187z"/>
</svg>
